
<svg xmlns="http://www.w3.org/2000/svg" xmlns:svg="http://www.w3.org/2000/svg" data-name="Capa 2" viewBox="4 6.16 38.43 30.92">
 <g class="layer">
  <title>Layer 1</title>
  <g data-name="Layer 1" id="Layer_1">
   <g id="svg_1">
    <g id="m3g1eT.tif">
     <g id="svg_2">
      <path class="cls-1" d="m30.52,18.51c-4.81,4.34 -8.63,9.23 -10.41,15.72c-0.46,-0.79 -0.84,-1.42 -1.2,-2.05c-1.39,-2.4 -2.77,-4.81 -4.17,-7.21c-0.21,-0.36 -0.23,-0.64 -0.03,-1.02c1.76,-3.38 3.94,-6.47 6.61,-9.19c1.47,-1.5 3.04,-2.89 4.6,-4.29c0.38,-0.35 0.45,-0.59 0.18,-1.02c-0.53,-0.86 -1.02,-1.74 -1.52,-2.61c-0.1,-0.17 -0.18,-0.35 -0.31,-0.62l18.16,0c-0.45,0.81 -0.84,1.54 -1.26,2.25c-2.46,4.25 -4.92,8.51 -7.38,12.76c-0.12,0.2 -0.31,0.35 -0.46,0.53c-0.15,-0.18 -0.34,-0.35 -0.46,-0.55c-0.5,-0.85 -0.99,-1.71 -1.48,-2.56l0,0c-0.18,-0.31 -0.6,-0.38 -0.86,-0.14l-0.01,0z" id="svg_3"/>
      <path class="cls-1" d="m13.15,22.81c-3.4,-5.9 -5.75,-10.69 -9.15,-16.58c0.35,-0.03 0.56,-0.06 0.77,-0.06c3.21,0 6.43,0 9.64,-0.01c0.47,0 0.74,0.14 0.98,0.56c1.5,2.65 2.04,4.29 3.57,6.92c0.2,0.35 0.22,0.59 -0.07,0.92c-2.1,2.39 -3.91,4.98 -5.39,7.8c-0.07,0.14 -0.19,0.25 -0.35,0.46l0,-0.01z" id="svg_4"/>
      <path class="cls-1" d="m33.93,37.08l0,0c-0.09,-0.23 -0.2,-0.46 -0.32,-0.68l-6.51,-11.27c-0.13,-0.22 -0.44,-0.24 -0.59,-0.03c-1.7,2.3 -3.08,4.76 -4.02,7.46c-0.46,1.33 -1.07,2.65 0.09,3.99c0.3,0.35 0.54,0.53 1,0.53c3.17,-0.02 6.34,0 9.52,0l0.5,0s0,0 0,0l0.34,0l-0.01,0z" id="svg_5"/>
     </g>
    </g>
   </g>
  </g>
 </g>
 	<style>
        path { fill: #6c24ff; }
        @media (prefers-color-scheme: dark) {
            path { fill: #fff; }
        }
    </style>
</svg>
