<svg
	xmlns="http://www.w3.org/2000/svg"
	id="Capa_2"
	data-name="Capa 2"
	viewBox="0 0 153.53 42.13"
>
	<defs>
		<style>
			.cls-1 {
				fill: currentColor;
				stroke-width: 0;
			}
		</style>
	</defs>
	<g id="Layer_1" data-name="Layer 1">
		<g id="m3g1eT.tif">
			<path
				d="M26.52 22.51c-4.81 4.34-8.63 9.23-10.41 15.72-.46-.79-.84-1.42-1.2-2.05-1.39-2.4-2.77-4.81-4.17-7.21-.21-.36-.23-.64-.03-1.02 1.76-3.38 3.94-6.47 6.61-9.19 1.47-1.5 3.04-2.89 4.6-4.29.38-.35.45-.59.18-1.02-.53-.86-1.02-1.74-1.52-2.61-.1-.17-.18-.35-.31-.62h18.16c-.45.81-.84 1.54-1.26 2.25-2.46 4.25-4.92 8.51-7.38 12.76-.12.2-.31.35-.46.53-.15-.18-.34-.35-.46-.55-.5-.85-.99-1.71-1.48-2.56a.56.56 0 0 0-.86-.14ZM9.15 26.81C5.75 20.91 3.4 16.12 0 10.23c.35-.03.56-.06.77-.06 3.21 0 6.43 0 9.64-.01.47 0 .74.14.98.56 1.5 2.65 2.04 4.29 3.57 6.92.2.35.22.59-.07.92-2.1 2.39-3.91 4.98-5.39 7.8-.07.14-.19.25-.35.46Z"
				class="cls-1"></path>
			<path
				d="M29.93 41.08c-.09-.23-.2-.46-.32-.68L23.1 29.13a.351.351 0 0 0-.59-.03c-1.7 2.3-3.08 4.76-4.02 7.46-.46 1.33-1.07 2.65.09 3.99.3.35.54.53 1 .53 3.17-.02 6.34 0 9.52 0H29.94Z"
				class="cls-1"></path>
		</g>
		<path
			d="M104.72 10.68c-3.79-.24-7.34.93-9.88 3.25V.73c0-.4-.32-.73-.73-.73h-6.14c-.33 0-.63.23-.7.55-.02.06-.03.11-.04.16-.03.12-.07.26-.07.43v7.41c0 6.15-.01 12.51.13 18.76.09 4.25 1.76 7.92 4.81 10.61 2.9 2.55 6.33 3.84 10.25 3.84 1.26 0 2.58-.13 3.94-.4 5.39-1.06 9.4-4.26 11.3-9.01 2.01-5.04 1.31-11.32-1.74-15.63-2.47-3.49-6.63-5.74-11.11-6.03Zm5.09 19.63c-1.79 3.63-6.26 5.22-10.17 3.63-3.15-1.28-4.81-4.21-4.8-8.45.08-1.71.71-4.85 3.97-6.69 1.31-.74 2.63-1.11 3.96-1.11s2.74.39 4.11 1.18c3.62 2.08 4.97 7.32 2.93 11.45ZM83.59 23.84c-1.15-8.16-8.61-14.25-16.63-13.59-8.86.73-15.3 7.72-14.99 16.26.23 6.11 3.14 10.82 8.42 13.64 2.47 1.32 4.97 1.98 7.47 1.98 2.84 0 5.7-.85 8.54-2.55 0 .16.02.32.05.49.08.44.57 1.25 1.24 1.27 1.35.04 2.68.04 4.08.03h1.27c.4 0 .73-.33.73-.73V26.39c0-.85-.07-1.71-.18-2.55Zm-9.67 8.56c-2.18 2.54-4.85 3.47-7.92 2.76-3.3-.76-5.48-3.01-6.46-6.68-.13-.51-.19-1.05-.25-1.62-.03-.26-.05-.51-.09-.77.07-2.1.63-3.87 1.7-5.42a8.41 8.41 0 0 1 6.24-3.61c2.39-.2 4.71.65 6.35 2.34 3.4 3.49 3.6 9.33.44 13.01Z"
			class="cls-1"></path>
		<rect width="7.71" height="30.33" x="40.86" y="10.83" class="cls-1" rx=".73" ry=".73"></rect>
		<path
			d="M137.71 10.22c-8.72 0-15.82 7.1-15.82 15.82s7.1 15.82 15.82 15.82 15.82-7.1 15.82-15.82-7.1-15.82-15.82-15.82Zm6.04 22.06c-2.18 2.54-4.85 3.47-7.92 2.76-3.3-.76-5.48-3.01-6.46-6.68-.13-.5-.19-1.04-.25-1.62-.03-.26-.05-.51-.09-.77.09-2.71 1-4.91 2.78-6.72 1.58-1.61 3.64-2.48 5.84-2.45 2.19.03 4.26.96 5.81 2.63 3.31 3.55 3.43 9.2.29 12.86Z"
			class="cls-1"></path>
	</g>
</svg>
