<?xml version="1.0" encoding="UTF-8"?>
<svg id="Capa_2" data-name="Capa 2" xmlns="http://www.w3.org/2000/svg" xmlns:xlink="http://www.w3.org/1999/xlink" viewBox="0 0 33.12 33.14">
  <defs>
    <style>
      .cls-1 {
        fill: url(#Degradado_sin_nombre_4-2);
      }

      .cls-1, .cls-2, .cls-3 {
        stroke-width: 0px;
      }

      .cls-2 {
        fill: #fff;
      }

      .cls-3 {
        fill: url(#Degradado_sin_nombre_4);
      }
    </style>
    <linearGradient id="Degradado_sin_nombre_4" data-name="Degradado sin nombre 4" x1="4.68" y1="31.07" x2="17.68" y2="14.27" gradientUnits="userSpaceOnUse">
      <stop offset="0" stop-color="#b76cf7"/>
      <stop offset=".29" stop-color="#9a5af6"/>
      <stop offset=".76" stop-color="#7041f5"/>
      <stop offset="1" stop-color="#6138f5"/>
    </linearGradient>
    <linearGradient id="Degradado_sin_nombre_4-2" data-name="Degradado sin nombre 4" x1="14.8" y1="38.91" x2="27.8" y2="22.11" xlink:href="#Degradado_sin_nombre_4"/>
  </defs>
  <g id="Layer_1" data-name="Layer 1">
    <g id="w6ZkQx.tif">
      <g>
        <path class="cls-3" d="M0,16.56C-.19,9.9,4.29,3.37,10.89.99,13.84-.07,16.86-.27,19.93.35c2.16.44,4.14,1.3,5.97,2.54.63.42.8,1.17.42,1.78-.38.62-1.16.81-1.81.39-1.14-.73-2.32-1.38-3.61-1.77-4.46-1.36-8.64-.78-12.45,1.93-2.78,1.96-4.64,4.62-5.43,7.94-1.14,4.8-.08,9.11,3.22,12.8,2.35,2.63,5.33,4.13,8.83,4.51,2.87.31,5.6-.24,8.15-1.61.21-.11.41-.24.62-.34.65-.33,1.39-.11,1.74.5.35.63.17,1.41-.5,1.75-1,.52-2.01,1.04-3.07,1.43-1.91.71-3.9,1.01-5.94.93-4.81-.18-8.82-2.08-12.01-5.68C1.88,24.99.59,22.1.14,18.84c-.1-.76-.09-1.53-.14-2.29Z"/>
        <path class="cls-2" d="M16.85,22.91c-1.06,0-1.87-.32-2.54-.95-2.23-2.11-4.46-4.22-6.69-6.34-.58-.55-.61-1.34-.1-1.88.52-.55,1.3-.54,1.9.02,2.16,2.04,4.32,4.09,6.48,6.14.61.58.98.56,1.51-.11,4.38-5.44,8.75-10.89,13.13-16.33.1-.13.2-.25.31-.37.49-.52,1.24-.58,1.78-.14.53.43.65,1.17.23,1.74-.54.73-1.12,1.42-1.69,2.13-3.96,4.92-7.92,9.85-11.87,14.77-.67.83-1.52,1.28-2.45,1.32Z"/>
        <path class="cls-1" d="M33.12,16.45c-.07,3.55-.99,6.5-2.74,9.2-.44.68-1.18.88-1.84.48-.61-.36-.78-1.16-.35-1.84.88-1.38,1.56-2.85,1.94-4.45.54-2.22.52-4.44-.02-6.66-.12-.48-.07-.93.28-1.3.33-.36.75-.5,1.23-.39.52.12.85.46.98.97.36,1.42.53,2.86.52,3.99Z"/>
      </g>
    </g>
  </g>
</svg>