<?xml version="1.0" encoding="UTF-8"?>
<svg id="Capa_2" data-name="Capa 2" xmlns="http://www.w3.org/2000/svg" viewBox="0 0 80.02 62.86">
  <defs>
    <style>
      .cls-1 {
        fill: #802df4;
      }

      .cls-1, .cls-2 {
        stroke-width: 0px;
      }

      .cls-2 {
        fill: #b99dd9;
      }
    </style>
  </defs>
  <g id="Layer_1" data-name="Layer 1">
    <g>
      <path class="cls-1" d="M20.02,55.33c-2-.09-4.45.15-6.89-.14-6.27-.73-11.55-5.59-12.81-11.79-1.65-8.12,3.37-15.89,11.47-17.71.64-.14.81-.41.88-1.02,1.07-8.94,5.4-15.85,13.03-20.63C30.44,1.06,35.69-.22,41.26.03c5.8.26,11.04,2.2,15.64,5.79,4.75,3.71,7.95,8.47,9.57,14.27.15.54.43.79.97.95,6.68,1.95,11.73,7.8,12.46,14.4.83,7.48-2.53,14.18-8.91,17.72-2.62,1.45-5.46,2.16-8.46,2.17-3.08.01-6.15-.01-9.23.02-.59,0-.76-.16-.74-.74.04-1.2.04-2.4,0-3.59-.02-.55.16-.7.7-.7,3.02.02,6.05.02,9.07,0,6.28-.02,11.26-4.12,12.5-10.25,1.31-6.5-3.18-13.25-9.71-14.43-1.85-.34-2.73-1.27-3.2-3.06-2.44-9.27-8.46-14.96-17.8-16.9-9.74-2.02-19.98,3.28-24.27,12.26-1.34,2.81-2.13,5.75-2.23,8.86-.01.42-.05.83-.1,1.25-.15,1.37-1.12,2.2-2.61,2.28-4.04.2-7.06,2.05-8.85,5.69-3.18,6.44,1.47,14.12,8.66,14.29,3.99.1,7.97.04,11.96,0,.73,0,.93.2.89.9-.06,1.17-.03,2.34,0,3.52.01.48-.14.62-.62.62-2.16-.02-4.33-.01-6.94-.01Z"/>
      <path class="cls-2" d="M42.58,38.9v1.05c0,7.34,0,14.69.01,22.03,0,.66-.12.92-.85.87-1.06-.07-2.14-.07-3.2,0-.76.05-1.01-.14-1-.96.04-7.32.02-14.64.02-21.96,0-.28,0-.56,0-.85-.35,0-.46.24-.61.39-1.58,1.56-3.16,3.11-4.71,4.69-.34.34-.52.35-.85,0-.88-.93-1.79-1.82-2.7-2.71-.28-.27-.4-.44-.05-.79,3.2-3.17,6.37-6.37,9.58-9.54,1.13-1.12,2.56-1.12,3.68,0,3.2,3.17,6.38,6.37,9.57,9.55.29.29.3.46,0,.75-.94.9-1.87,1.82-2.76,2.77-.36.38-.55.28-.86-.04-1.52-1.54-3.05-3.06-4.58-4.59-.18-.18-.37-.35-.71-.66Z"/>
    </g>
  </g>
</svg>